<svg width="1024" height="1024" viewBox="0 0 1024 1024" fill="none" xmlns="http://www.w3.org/2000/svg">
<g clip-path="url(#clip0_80410_1038)">
<rect width="1024" height="1024" fill="#F8F9FA"/>
<path d="M855 -1V1024" stroke="#E1E4E8" stroke-width="6"/>
<path d="M684 -1V1024" stroke="#E1E4E8" stroke-width="6"/>
<path d="M513 -1V1024" stroke="#E1E4E8" stroke-width="6"/>
<path d="M342 -1V1024" stroke="#E1E4E8" stroke-width="6"/>
<path d="M171 -1V1024" stroke="#E1E4E8" stroke-width="6"/>
<path d="M1024 854L-1 854" stroke="#E1E4E8" stroke-width="6"/>
<path d="M1024 683L-1 683" stroke="#E1E4E8" stroke-width="6"/>
<path d="M1024 512L-1 512" stroke="#E1E4E8" stroke-width="6"/>
<path d="M1024 341L-1 341" stroke="#E1E4E8" stroke-width="6"/>
<path d="M1024 170L-1 170" stroke="#E1E4E8" stroke-width="6"/>
<circle cx="512" cy="511" r="337" stroke="#D1D5DA" stroke-width="12"/>
<circle cx="512" cy="512" r="166" stroke="#D1D5DA" stroke-width="12"/>
<circle cx="512" cy="512" r="438" stroke="#D1D5DA" stroke-width="12"/>
<g style="mix-blend-mode:color-burn">
<rect width="1024" height="1024" fill="black"/>
</g>
<path d="M171 814.666L170.993 864.666L270.992 864.681L271 814.681L171 814.666ZM271.045 512.008C271.05 484.393 248.667 462.004 221.053 462C193.439 461.996 171.05 484.378 171.045 511.993L271.045 512.008ZM271 814.681L271.045 512.008L171.045 511.993L171 814.666L271 814.681Z" fill="white"/>
<path d="M324 813.666L323.993 863.666L423.992 863.681L424 813.681L324 813.666ZM424.086 239.008C424.09 211.393 401.708 189.004 374.094 189C346.479 188.996 324.09 211.378 324.086 238.993L424.086 239.008ZM424 813.681L424.086 239.008L324.086 238.993L324 813.666L424 813.681Z" fill="white"/>
<path d="M477 813.666L476.993 863.666L576.992 863.681L577 813.681L477 813.666ZM577.062 399.008C577.066 371.393 554.684 349.004 527.07 349C499.455 348.996 477.066 371.378 477.062 398.993L577.062 399.008ZM577 813.681L577.062 399.008L477.062 398.993L477 813.666L577 813.681Z" fill="white"/>
<path d="M629 814.666L628.993 864.666L728.992 864.681L729 814.681L629 814.666ZM729.029 620.008C729.033 592.393 706.651 570.004 679.037 570C651.422 569.996 629.033 592.378 629.029 619.993L729.029 620.008ZM729 814.681L729.029 620.008L629.029 619.993L629 814.666L729 814.681Z" fill="white"/>
<path d="M781 813.666L780.993 863.666L880.992 863.681L881 813.681L781 813.666ZM881.095 179.008C881.099 151.393 858.717 129.004 831.103 129C803.488 128.996 781.099 151.378 781.095 178.993L881.095 179.008ZM881 813.681L881.095 179.008L781.095 178.993L781 813.666L881 813.681Z" fill="white"/>
</g>
<defs>
<clipPath id="clip0_80410_1038">
<rect width="1024" height="1024" fill="white"/>
</clipPath>
</defs>
</svg>
