<svg width="104" height="27" viewBox="0 0 104 27" fill="none" xmlns="http://www.w3.org/2000/svg">
<path d="M12.4997 2.0835C10.4395 2.0835 8.4255 2.69442 6.71249 3.83902C4.99948 4.98362 3.66435 6.61048 2.87593 8.51388C2.08752 10.4173 1.88124 12.5117 2.28317 14.5324C2.6851 16.553 3.67719 18.4091 5.13398 19.8659C6.59078 21.3227 8.44685 22.3147 10.4675 22.7167C12.4881 23.1186 14.5826 22.9123 16.486 22.1239C18.3894 21.3355 20.0162 20.0004 21.1608 18.2874C22.3054 16.5743 22.9163 14.5604 22.9163 12.5002C22.9163 11.1322 22.6469 9.77768 22.1234 8.51388C21.5999 7.25007 20.8327 6.10174 19.8654 5.13447C18.8981 4.16719 17.7498 3.3999 16.486 2.87642C15.2222 2.35293 13.8676 2.0835 12.4997 2.0835ZM12.4997 20.8335C10.8515 20.8335 9.24034 20.3448 7.86993 19.4291C6.49952 18.5134 5.43141 17.2119 4.80068 15.6892C4.16995 14.1665 4.00493 12.4909 4.32647 10.8744C4.64801 9.2579 5.44168 7.77304 6.60712 6.60761C7.77256 5.44217 9.25742 4.6485 10.8739 4.32695C12.4904 4.00541 14.166 4.17044 15.6887 4.80117C17.2114 5.4319 18.5129 6.5 19.4286 7.87041C20.3443 9.24082 20.833 10.852 20.833 12.5002C20.833 14.7103 19.955 16.8299 18.3922 18.3927C16.8294 19.9555 14.7098 20.8335 12.4997 20.8335Z" fill="#01A95F"/>
<path d="M12.5003 7.2915C11.4702 7.2915 10.4632 7.59697 9.60673 8.16927C8.75023 8.74157 8.08266 9.555 7.68846 10.5067C7.29425 11.4584 7.19111 12.5056 7.39207 13.5159C7.59304 14.5262 8.08908 15.4543 8.81748 16.1827C9.54588 16.9111 10.4739 17.4071 11.4842 17.6081C12.4946 17.8091 13.5418 17.7059 14.4935 17.3117C15.4452 16.9175 16.2586 16.2499 16.8309 15.3934C17.4032 14.5369 17.7087 13.5299 17.7087 12.4998C17.7087 11.1185 17.1599 9.79374 16.1832 8.81699C15.2064 7.84024 13.8817 7.2915 12.5003 7.2915Z" fill="#01A95F"/>
<path d="M38.408 19.192C37.6507 19.192 36.9467 19.0533 36.296 18.776C35.656 18.4987 35.1013 18.1147 34.632 17.624C34.1733 17.1227 33.8373 16.5413 33.624 15.88L35.432 15.096C35.72 15.7787 36.136 16.3173 36.68 16.712C37.224 17.096 37.8373 17.288 38.52 17.288C38.904 17.288 39.2347 17.2293 39.512 17.112C39.8 16.984 40.0187 16.8133 40.168 16.6C40.328 16.3867 40.408 16.1307 40.408 15.832C40.408 15.48 40.3013 15.192 40.088 14.968C39.8853 14.7333 39.576 14.552 39.16 14.424L36.872 13.688C35.944 13.4 35.2453 12.968 34.776 12.392C34.3067 11.816 34.072 11.1387 34.072 10.36C34.072 9.67733 34.2373 9.07467 34.568 8.552C34.9093 8.02933 35.3787 7.624 35.976 7.336C36.584 7.03733 37.2773 6.888 38.056 6.888C38.7707 6.888 39.4267 7.016 40.024 7.272C40.6213 7.51733 41.1333 7.864 41.56 8.312C41.9973 8.74933 42.3227 9.26667 42.536 9.864L40.744 10.664C40.5093 10.0667 40.1573 9.608 39.688 9.288C39.2187 8.95733 38.6747 8.792 38.056 8.792C37.6933 8.792 37.3733 8.856 37.096 8.984C36.8187 9.10133 36.6 9.272 36.44 9.496C36.2907 9.70933 36.216 9.96533 36.216 10.264C36.216 10.5947 36.3227 10.888 36.536 11.144C36.7493 11.3893 37.0747 11.5813 37.512 11.72L39.704 12.408C40.6533 12.7173 41.3627 13.144 41.832 13.688C42.312 14.232 42.552 14.904 42.552 15.704C42.552 16.3867 42.376 16.9893 42.024 17.512C41.672 18.0347 41.1867 18.4453 40.568 18.744C39.9493 19.0427 39.2293 19.192 38.408 19.192ZM53.3834 19.192C52.5087 19.192 51.6927 19.0373 50.9354 18.728C50.178 18.4187 49.5167 17.9867 48.9514 17.432C48.386 16.8773 47.9434 16.2267 47.6234 15.48C47.314 14.7227 47.1594 13.9067 47.1594 13.032C47.1594 12.1467 47.314 11.3307 47.6234 10.584C47.9327 9.83733 48.37 9.18667 48.9354 8.632C49.5007 8.07733 50.162 7.65067 50.9194 7.352C51.6767 7.04267 52.498 6.888 53.3834 6.888C54.2687 6.888 55.09 7.04267 55.8474 7.352C56.6047 7.66133 57.266 8.09333 57.8314 8.648C58.3967 9.192 58.834 9.83733 59.1434 10.584C59.4634 11.3307 59.6234 12.1467 59.6234 13.032C59.6234 13.9067 59.4634 14.7227 59.1434 15.48C58.8234 16.2267 58.3807 16.8773 57.8154 17.432C57.25 17.9867 56.5887 18.4187 55.8314 18.728C55.0847 19.0373 54.2687 19.192 53.3834 19.192ZM53.3834 17.208C53.97 17.208 54.5087 17.1067 54.9994 16.904C55.49 16.6907 55.9167 16.3973 56.2794 16.024C56.6527 15.6507 56.9354 15.208 57.1274 14.696C57.33 14.184 57.4314 13.6293 57.4314 13.032C57.4314 12.4347 57.33 11.8853 57.1274 11.384C56.9354 10.872 56.6527 10.4293 56.2794 10.056C55.9167 9.672 55.49 9.37867 54.9994 9.176C54.5087 8.97333 53.97 8.872 53.3834 8.872C52.8074 8.872 52.274 8.97333 51.7834 9.176C51.2927 9.37867 50.8607 9.672 50.4874 10.056C50.1247 10.4293 49.842 10.872 49.6394 11.384C49.4367 11.8853 49.3354 12.4347 49.3354 13.032C49.3354 13.6293 49.4367 14.184 49.6394 14.696C49.842 15.208 50.1247 15.6507 50.4874 16.024C50.8607 16.3973 51.2927 16.6907 51.7834 16.904C52.274 17.1067 52.8074 17.208 53.3834 17.208ZM64.5583 19V7.08H66.2543L72.8142 15.912L71.9343 16.088V7.08H74.1103V19H72.3983L65.9343 10.104L66.7343 9.928V19H64.5583ZM78.4416 19L82.5536 7.08H85.3696L89.4816 19H87.1136L86.2656 16.44H81.6576L80.7936 19H78.4416ZM82.2816 14.52H85.6416L83.6576 8.584H84.2656L82.2816 14.52ZM93.8083 19V7.08H98.2403C99.0509 7.08 99.7656 7.22933 100.384 7.528C101.014 7.816 101.504 8.24267 101.856 8.808C102.208 9.36267 102.384 10.04 102.384 10.84C102.384 11.6613 102.187 12.36 101.792 12.936C101.408 13.512 100.886 13.9387 100.224 14.216L102.96 19H100.496L97.5683 13.768L98.9763 14.6H95.9843V19H93.8083ZM95.9843 12.68H98.2723C98.6669 12.68 99.0083 12.6053 99.2963 12.456C99.5843 12.296 99.8083 12.0773 99.9683 11.8C100.128 11.5227 100.208 11.2027 100.208 10.84C100.208 10.4667 100.128 10.1467 99.9683 9.88C99.8083 9.60267 99.5843 9.38933 99.2963 9.24C99.0083 9.08 98.6669 9 98.2723 9H95.9843V12.68Z" fill="white"/>
</svg>
